<?xml version="1.0" encoding="utf-8"?>
<!-- Generator: Adobe Illustrator 18.1.1, SVG Export Plug-In . SVG Version: 6.00 Build 0)  -->
<svg version="1.1" id="Слой_1" xmlns="http://www.w3.org/2000/svg" xmlns:xlink="http://www.w3.org/1999/xlink" x="0px" y="0px"
	 viewBox="0 252 612 270" enable-background="new 0 252 612 270" xml:space="preserve">
<path fill="#FFFFFF" d="M208.8,453.9c7.2,0,13.8-5.3,13.8-12.3V420h-14.8v7.1h7.5v14.5c0,3-3.2,5.3-6.6,5.3c-4.1,0-8-2.2-8-5.3
	v-36.4c0-3,3.7-5.7,8-5.7c3.5,0,6.6,2.6,6.6,5.7v8.8h7.2v-8.8c0-7.1-6.3-12.9-13.8-12.9c-8.1,0-15.2,5.7-15.2,12.9v36.4
	C193.6,448.6,200.9,453.9,208.8,453.9L208.8,453.9L208.8,453.9z M229.8,392.4v61h23.4v-7.2h-16.3v-18.9h14.3v-7.2H237v-20.6h16.3
	v-7.2H229.8L229.8,392.4z M273.9,446.8c-4.1,0-7.8-2.2-7.8-5.3v-36.8c0-3,3.7-5.3,7.8-5.3c4.2,0,7.8,2.2,7.8,5.3v36.8
	C281.7,444.6,278.1,446.8,273.9,446.8L273.9,446.8z M288.7,404.7c0-7-7-12.3-15-12.3c-7.8,0-15,5.3-15,12.3v36.8
	c0,7,7.2,12.3,15,12.3c8,0,15-5.3,15-12.3V404.7L288.7,404.7z M310.6,399.5h9.6v-7.2h-26.4v7.2h9.7v53.8h7.2V399.5L310.6,399.5z
	 M326.6,392.4v61H350v-7.2h-16.3v-18.9H348v-7.2h-14.2v-20.6H350v-7.2H326.6L326.6,392.4z M371.1,453.9c7.6,0,13.8-5.8,13.8-13v-4.4
	h-7.2v4.3c0,3.1-3,5.8-6.5,5.8c-4.2,0-8-2.7-8-5.8v-35.5c0-3.1,3.7-5.8,8-5.8c3.5,0,6.5,2.7,6.5,5.8v4h7.2v-4c0-7.2-6.1-13-13.8-13
	c-8.1,0-15.2,5.8-15.2,13v35.5C355.9,448,363,453.9,371.1,453.9L371.1,453.9z M417.8,392.4h-7.2v27.7h-11.8v-27.7h-7.2v61h7.2v-26.1
	h11.8v26.1h7.2V392.4L417.8,392.4z M457,453.9c7.2,0,13.8-5.3,13.8-12.3V426H456v7.1h7.6v8.5c0,3-3.2,5.3-6.6,5.3
	c-4.1,0-8-2.2-8-5.3v-36.4c0-3,3.7-5.7,8-5.7c3.5,0,6.6,2.6,6.6,5.7v8.8h7.2v-8.8c0-7.1-6.3-12.9-13.8-12.9
	c-8.1,0-15.2,5.7-15.2,12.9v36.4C441.8,448.6,449.1,453.9,457,453.9L457,453.9L457,453.9z M486,433.3h6.1c3.2,0,6,2.8,6,6v13.9h7.3
	v-13.9c0-3.6-1.6-7.3-4.4-9.9c2.3-2.4,3.9-5.7,3.9-9.1v-15.1c0-7.2-5.9-13-13-13h-13v61h7.2L486,433.3L486,433.3z M491.2,400.3
	c3.2,0,5.7,2.6,5.7,5.8v15.1c0,3-2.4,5.7-5.4,5.7h-6v-26.7L491.2,400.3L491.2,400.3z M527.7,446.8c-4.1,0-7.8-2.2-7.8-5.3v-36.8
	c0-3,3.7-5.3,7.8-5.3c4.2,0,7.8,2.2,7.8,5.3v36.8C535.5,444.6,531.9,446.8,527.7,446.8L527.7,446.8z M542.7,404.7
	c0-7-7-12.3-15-12.3c-7.8,0-15,5.3-15,12.3v36.8c0,7,7.2,12.3,15,12.3c8,0,15-5.3,15-12.3V404.7L542.7,404.7z M563.5,446.5
	c-3.4,0-6.3-2.5-6.3-5.6v-48.6H550v48.6c0,7,6.1,12.7,13.5,12.7c7.5,0,13.6-5.7,13.6-12.7v-48.6h-7.2v48.6
	C570,444,567,446.5,563.5,446.5L563.5,446.5z M611.3,405.3c0-7.2-5.9-13-13-13h-13v61h7.2v-20h5.7c7.2,0,13-5.7,13-12.9V405.3
	L611.3,405.3z M598.6,400.3c3.1,0,5.7,2.7,5.7,5.8v15.1c0,3.1-2.6,5.7-5.7,5.7h-5.7v-26.7L598.6,400.3L598.6,400.3z"/>
<path fill="#FFFFFF" d="M51.3,344.8l-25.4,27.7C-2.6,404-1.4,452,30,481c31,28.8,79.8,27,108.6-4.1c26.3-28.3,27.4-72,2.6-101.6
	l-0.1-0.1l-22.6-21l-32,34.6c-11.3,12.2-10.6,31.5,1.6,42.8l1,0.9l30.9-33.2l1.9,3.4c9.4,17,6.9,38.4-6.4,52.7
	c-16.9,18.2-45.6,19.3-63.9,2.4s-19.3-45.6-2.4-63.9c13.8-14.9,19.7-32.9,2.8-48.6L51.3,344.8z"/>
<path fill="#FFFFFF" d="M74.9,284.4c10.5,29.8-14.6,38.7-17.5,51.5l1.8,1.6c10,9.3,14.1,15.8,13.7,26.2c13.2,2,34-19.4,20.4-51.8
	c-3.8,7-8.9,11.7-8.9,11.7C90.6,306.7,86.3,297,74.9,284.4z"/>
</svg>
