<?xml version="1.0" encoding="utf-8"?>
<!-- Generator: Adobe Illustrator 18.1.1, SVG Export Plug-In . SVG Version: 6.00 Build 0)  -->
<svg version="1.1" id="Слой_1" xmlns="http://www.w3.org/2000/svg" xmlns:xlink="http://www.w3.org/1999/xlink" x="0px" y="0px"
	 viewBox="0 0 437.8 702.7" enable-background="new 0 0 437.8 702.7" xml:space="preserve">
<path fill-rule="evenodd" clip-rule="evenodd" fill="#05589e" d="M58.5,554.9c12,0,23-8.9,23-20.6v-36.1H56.8v11.9h12.7v24.2
	c0,5.1-5.4,8.9-11,8.9c-6.9,0-13.4-3.7-13.4-8.9v-60.8c0-5.1,6.2-9.5,13.4-9.5c5.9,0,11,4.4,11,9.5v14.7h12v-14.7
	c0-11.9-10.5-21.5-23-21.5c-13.6,0-25.5,9.6-25.5,21.5v60.8C33.1,546,45.3,554.9,58.5,554.9L58.5,554.9L58.5,554.9z M93.6,452.1v102
	h39.2v-12h-27.2v-31.6h23.8v-12h-23.8V464h27.2v-12H93.6L93.6,452.1z M167.1,543c-6.9,0-13.1-3.7-13.1-8.9v-61.5
	c0-5.1,6.2-8.9,13.1-8.9c7,0,13.1,3.7,13.1,8.9v61.5C180.2,539.3,174.1,543,167.1,543L167.1,543z M192.2,472.6
	c0-11.7-11.7-20.6-25.1-20.6c-13.1,0-25.1,8.9-25.1,20.6v61.5c0,11.7,12,20.6,25.1,20.6c13.4,0,25.1-8.9,25.1-20.6V472.6
	L192.2,472.6z M228.7,464h16v-12h-44.2v12h16.2v90h12V464L228.7,464z M255.5,452.1v102h39.2v-12h-27.2v-31.6h23.8v-12h-23.8V464
	h27.2v-12H255.5L255.5,452.1z M330,554.9c12.7,0,23-9.7,23-21.7v-7.2h-12.1v7.2c0,5.2-5,9.7-10.9,9.7c-7.1,0-13.4-4.5-13.4-9.7
	v-59.4c0-5.2,6.2-9.7,13.4-9.7c5.9,0,10.9,4.5,10.9,9.7v6.7h12.1v-6.7c0-12-10.2-21.7-23-21.7c-13.6,0-25.5,9.7-25.5,21.7v59.4
	C304.5,545.2,316.4,554.9,330,554.9L330,554.9z M408.1,452.1H396v46.4h-19.8v-46.4H364v102h12.1v-43.6H396V554h12.1V452.1
	L408.1,452.1z M106.3,685.3c12,0,23-8.9,23-20.6v-26.1h-24.7v11.9h12.7v14.2c0,5.1-5.4,8.9-11,8.9c-6.9,0-13.4-3.7-13.4-8.9v-60.8
	c0-5.1,6.2-9.5,13.4-9.5c5.9,0,11,4.4,11,9.5v14.7h12v-14.7c0-11.9-10.5-21.5-23-21.5c-13.6,0-25.5,9.6-25.5,21.5v60.8
	C80.8,676.5,93,685.3,106.3,685.3L106.3,685.3L106.3,685.3z M154.7,651h10.2c5.4,0,10,4.6,10,10.1v23.3H187v-23.3
	c0-6.1-2.6-12.2-7.4-16.5c3.9-4,6.5-9.6,6.5-15.2v-25.2c0-12-9.9-21.7-21.8-21.7h-21.7v102h12.1V651L154.7,651z M164.3,594.5
	c5.4,0,9.6,4.4,9.6,9.7v25.2c0,5.1-4,9.6-9.1,9.6h-10.1v-44.6H164.3L164.3,594.5z M224.4,673.5c-6.9,0-13.1-3.7-13.1-8.9v-61.5
	c0-5.1,6.2-8.9,13.1-8.9c7,0,13.1,3.7,13.1,8.9v61.5C237.5,669.7,231.4,673.5,224.4,673.5L224.4,673.5z M249.5,603.1
	c0-11.7-11.7-20.6-25.1-20.6c-13.1,0-25.1,8.9-25.1,20.6v61.5c0,11.7,12,20.6,25.1,20.6c13.4,0,25.1-8.9,25.1-20.6V603.1
	L249.5,603.1z M284.3,673.1c-5.7,0-10.6-4.2-10.6-9.4v-81.2h-12v81.2c0,11.7,10.2,21.3,22.6,21.3c12.5,0,22.8-9.6,22.8-21.3v-81.2
	h-12.1v81.2C295.1,668.8,290.1,673.1,284.3,673.1L284.3,673.1z M364.2,604.2c0-12-9.9-21.7-21.7-21.7h-21.7v102h12.1V651h9.6
	c12,0,21.7-9.6,21.7-21.6V604.2L364.2,604.2z M342.5,594.5c5.2,0,9.6,4.5,9.6,9.7v25.2c0,5.2-4.4,9.6-9.6,9.6h-9.6v-44.6H342.5z"/>
<path fill-rule="evenodd" clip-rule="evenodd" fill="#05589e" d="M168.8,124.5l-42.5,46.3c-47.7,52.7-45.6,133,6.9,181.6
	c51.9,48.1,133.5,45.1,181.7-6.8c44-47.4,45.8-120.4,4.3-170l-0.1-0.1l-37.8-35.1l-53.6,57.8c-18.9,20.4-17.7,52.7,2.7,71.6l1.7,1.5
	l51.6-55.6l3.2,5.7c15.8,28.5,11.5,64.2-10.7,88.1c-28.3,30.5-76.3,32.3-106.8,4c-30.5-28.3-32.3-76.3-4-106.8
	c23.1-24.9,32.9-55.1,4.7-81.3L168.8,124.5z"/>
<path fill-rule="evenodd" clip-rule="evenodd" fill="#e3000f" d="M208.3,23.5c17.5,49.8-24.4,64.7-29.3,86.2l3,2.7
	c16.8,15.6,23.6,26.4,22.9,43.9c22,3.4,56.9-32.5,34.1-86.7c-6.4,11.7-14.9,19.5-14.9,19.5C234.5,60.9,227.4,44.7,208.3,23.5z"/>
</svg>
