<?xml version="1.0" encoding="utf-8"?>
<!-- Generator: Adobe Illustrator 18.1.1, SVG Export Plug-In . SVG Version: 6.00 Build 0)  -->
<svg version="1.1" id="Слой_1" xmlns="http://www.w3.org/2000/svg" xmlns:xlink="http://www.w3.org/1999/xlink" x="0px" y="0px"
	 viewBox="158 23 298.5 418" enable-background="new 158 23 298.5 418" xml:space="preserve">
<path fill="#05589e" d="M249.5,140.3l-47.9,52.2c-53.8,59.4-51.4,149.9,7.8,204.7c58.5,54.2,150.5,50.8,204.8-7.7
	c49.6-53.4,51.6-135.7,4.8-191.6l-0.1-0.1l-42.6-39.6l-60.4,65.1c-21.3,23-19.9,59.4,3,80.7l1.9,1.7l58.2-62.7l3.6,6.4
	c17.8,32.1,13,72.4-12.1,99.3c-31.9,34.4-86,36.4-120.4,4.5s-36.4-86-4.5-120.4c26-28.1,37.1-62.1,5.3-91.6L249.5,140.3z"/>
<path fill="#e3000f" d="M294.1,26.5c19.7,56.1-27.5,72.9-33,97.2l3.4,3c18.9,17.6,26.6,29.8,25.8,49.5c24.8,3.8,64.1-36.6,38.4-97.7
	c-7.2,13.2-16.8,22-16.8,22C323.6,68.6,315.6,50.4,294.1,26.5z"/>
</svg>
